<svg width="654" height="273" viewBox="0 0 654 273" fill="none" xmlns="http://www.w3.org/2000/svg">
<mask id="mask0" mask-type="alpha" maskUnits="userSpaceOnUse" x="0" y="0" width="210" height="273">
<path fill-rule="evenodd" clip-rule="evenodd" d="M129 272.797C131.483 272.932 133.984 273 136.5 273C163.33 273 188.351 265.259 209.454 251.89V208.5C190.869 227.33 165.047 239 136.5 239C112.747 239 90.8806 230.92 73.5 217.359C78.3333 227.604 96.2 253.035 129 272.797Z" fill="#9CDE80"/>
<path d="M136.5 34C165.798 34 190.774 50.2919 209.454 70V22C188.051 8.0586 163.947 0 136.5 0C130.743 0 125.07 0.35638 119.5 1.04828C90.7 23.8869 73.5 49.734 68.5 59.8027C86.5938 43.7488 110.408 34 136.5 34Z" fill="#9CDE80"/>
<path d="M34 136.5C34 128.948 34.8167 121.587 36.3666 114.5C32.9808 108.5 25.3882 89.6 22.1046 62C8.12507 83.4219 0 109.012 0 136.5C0 157.632 4.8021 177.643 13.3746 195.5C14.9164 184.667 21.2 157.7 34 136.5Z" fill="#9CDE80"/>
<path d="M73.5 217.359C49.4589 198.601 34 169.356 34 136.5C21.2 157.7 14.9164 184.667 13.3746 195.5C34.3627 239.22 77.9516 270.033 129 272.797C96.2 253.035 78.3333 227.604 73.5 217.359Z" fill="#9CDE80"/>
<path d="M68.5 59.8027C73.5 49.734 90.7 23.8869 119.5 1.04828C78.7293 6.11324 43.5367 29.1579 22.1046 62C25.3882 89.6 32.9808 108.5 36.3666 114.5C41.08 92.9484 52.5739 73.9332 68.5 59.8027Z" fill="#9CDE80"/>
</mask>
<g mask="url(#mask0)">
<path d="M0 -47H157V288H0V-47Z" fill="#7FB666"/>
<path d="M0 -47H157V288H0V-47Z" fill="#7FB666"/>
<path d="M115 -46H232V289H115V-46Z" fill="#9CDE80"/>
</g>
<path d="M314.82 173.95C305.89 173.95 298.86 171.765 293.73 167.395C288.6 163.025 285.877 156.597 285.56 148.11C285.497 146.273 285.465 143.55 285.465 139.94C285.465 136.267 285.497 133.512 285.56 131.675C285.877 123.315 288.632 116.887 293.825 112.39C299.082 107.83 306.08 105.55 314.82 105.55C323.56 105.55 330.558 107.83 335.815 112.39C341.072 116.887 343.827 123.315 344.08 131.675C344.207 135.348 344.27 138.103 344.27 139.94C344.27 141.713 344.207 144.437 344.08 148.11C343.763 156.597 341.04 163.025 335.91 167.395C330.78 171.765 323.75 173.95 314.82 173.95ZM314.82 160.27C318.303 160.27 321.058 159.225 323.085 157.135C325.175 155.045 326.283 151.847 326.41 147.54C326.537 143.867 326.6 141.27 326.6 139.75C326.6 138.103 326.537 135.507 326.41 131.96C326.283 127.653 325.175 124.455 323.085 122.365C320.995 120.275 318.24 119.23 314.82 119.23C311.4 119.23 308.645 120.275 306.555 122.365C304.528 124.455 303.42 127.653 303.23 131.96C303.167 133.733 303.135 136.33 303.135 139.75C303.135 143.107 303.167 145.703 303.23 147.54C303.42 151.847 304.528 155.045 306.555 157.135C308.582 159.225 311.337 160.27 314.82 160.27Z" fill="#4A7C33"/>
<path d="M357.657 173C357.023 173 356.454 172.778 355.947 172.335C355.504 171.828 355.282 171.258 355.282 170.625V108.875C355.282 108.178 355.504 107.608 355.947 107.165C356.454 106.722 357.023 106.5 357.657 106.5H383.497C391.793 106.5 398.253 108.4 402.877 112.2C407.563 115.937 409.907 121.257 409.907 128.16C409.907 132.593 408.862 136.362 406.772 139.465C404.682 142.568 401.8 144.943 398.127 146.59L411.142 169.96C411.332 170.34 411.427 170.688 411.427 171.005C411.427 171.512 411.205 171.987 410.762 172.43C410.382 172.81 409.939 173 409.432 173H396.797C394.96 173 393.662 172.145 392.902 170.435L382.072 149.535H372.382V170.625C372.382 171.322 372.128 171.892 371.622 172.335C371.178 172.778 370.609 173 369.912 173H357.657ZM383.307 136.045C386.22 136.045 388.437 135.348 389.957 133.955C391.477 132.498 392.237 130.503 392.237 127.97C392.237 125.437 391.477 123.442 389.957 121.985C388.5 120.465 386.284 119.705 383.307 119.705H372.382V136.045H383.307Z" fill="#4A7C33"/>
<path d="M430.77 173C429.694 173 428.839 172.715 428.205 172.145C427.572 171.512 427.192 170.752 427.065 169.865L416.71 109.16C416.647 108.97 416.615 108.748 416.615 108.495C416.615 107.988 416.805 107.545 417.185 107.165C417.629 106.722 418.104 106.5 418.61 106.5H430.39C432.164 106.5 433.145 107.197 433.335 108.59L439.51 145.64L446.35 123.79C447.047 122.08 448.092 121.225 449.485 121.225H456.325C457.909 121.225 458.954 122.08 459.46 123.79L466.3 145.64L472.475 108.59C472.665 107.197 473.647 106.5 475.42 106.5H487.2C487.77 106.5 488.245 106.722 488.625 107.165C489.069 107.545 489.29 107.988 489.29 108.495L489.195 109.16L478.84 169.865C478.714 170.752 478.302 171.512 477.605 172.145C476.972 172.715 476.149 173 475.135 173H466.11C465.097 173 464.305 172.747 463.735 172.24C463.165 171.733 462.754 171.163 462.5 170.53L452.905 143.36L443.31 170.53C442.74 172.177 441.569 173 439.795 173H430.77Z" fill="#4A7C33"/>
<path d="M492.497 173C491.991 173 491.516 172.81 491.072 172.43C490.692 171.987 490.502 171.512 490.502 171.005C490.502 170.625 490.534 170.34 490.597 170.15L512.922 109.16C513.112 108.4 513.524 107.767 514.157 107.26C514.791 106.753 515.614 106.5 516.627 106.5H530.687C531.701 106.5 532.524 106.753 533.157 107.26C533.791 107.767 534.202 108.4 534.392 109.16L556.622 170.15L556.812 171.005C556.812 171.512 556.591 171.987 556.147 172.43C555.767 172.81 555.292 173 554.722 173H543.037C541.517 173 540.504 172.335 539.997 171.005L536.292 161.315H510.927L507.317 171.005C506.811 172.335 505.766 173 504.182 173H492.497ZM532.492 147.635L523.657 122.555L514.822 147.635H532.492Z" fill="#4A7C33"/>
<path d="M298.68 212.3C295.86 212.3 293.64 211.61 292.02 210.23C290.4 208.85 289.54 206.82 289.44 204.14C289.42 203.56 289.41 202.7 289.41 201.56C289.41 200.4 289.42 199.53 289.44 198.95C289.54 196.31 290.41 194.28 292.05 192.86C293.71 191.42 295.92 190.7 298.68 190.7C301.44 190.7 303.65 191.42 305.31 192.86C306.97 194.28 307.84 196.31 307.92 198.95C307.96 200.11 307.98 200.98 307.98 201.56C307.98 202.12 307.96 202.98 307.92 204.14C307.82 206.82 306.96 208.85 305.34 210.23C303.72 211.61 301.5 212.3 298.68 212.3ZM298.68 207.98C299.78 207.98 300.65 207.65 301.29 206.99C301.95 206.33 302.3 205.32 302.34 203.96C302.38 202.8 302.4 201.98 302.4 201.5C302.4 200.98 302.38 200.16 302.34 199.04C302.3 197.68 301.95 196.67 301.29 196.01C300.63 195.35 299.76 195.02 298.68 195.02C297.6 195.02 296.73 195.35 296.07 196.01C295.43 196.67 295.08 197.68 295.02 199.04C295 199.6 294.99 200.42 294.99 201.5C294.99 202.56 295 203.38 295.02 203.96C295.08 205.32 295.43 206.33 296.07 206.99C296.71 207.65 297.58 207.98 298.68 207.98Z" fill="#7FB666"/>
<path d="M311.877 217.7C311.677 217.7 311.497 217.63 311.337 217.49C311.197 217.35 311.127 217.17 311.127 216.95V197.15C311.127 196.93 311.197 196.75 311.337 196.61C311.497 196.47 311.677 196.4 311.877 196.4H315.267C315.487 196.4 315.667 196.47 315.807 196.61C315.947 196.75 316.017 196.93 316.017 197.15V198.23C317.097 196.81 318.647 196.1 320.667 196.1C322.627 196.1 324.157 196.71 325.257 197.93C326.357 199.15 326.957 200.87 327.057 203.09C327.077 203.35 327.087 203.72 327.087 204.2C327.087 204.68 327.077 205.05 327.057 205.31C326.977 207.47 326.377 209.18 325.257 210.44C324.137 211.68 322.607 212.3 320.667 212.3C318.707 212.3 317.247 211.63 316.287 210.29V216.95C316.287 217.17 316.217 217.35 316.077 217.49C315.937 217.63 315.757 217.7 315.537 217.7H311.877ZM319.047 208.28C319.987 208.28 320.657 208 321.057 207.44C321.477 206.88 321.717 206.11 321.777 205.13C321.817 204.73 321.837 204.42 321.837 204.2C321.837 203.98 321.817 203.67 321.777 203.27C321.717 202.29 321.477 201.52 321.057 200.96C320.657 200.4 319.987 200.12 319.047 200.12C318.127 200.12 317.447 200.41 317.007 200.99C316.587 201.55 316.347 202.28 316.287 203.18L316.257 204.29L316.287 205.43C316.327 206.25 316.577 206.93 317.037 207.47C317.497 208.01 318.167 208.28 319.047 208.28Z" fill="#7FB666"/>
<path d="M337.253 212.3C334.853 212.3 332.963 211.65 331.583 210.35C330.203 209.05 329.483 207.16 329.423 204.68V203.63C329.503 201.27 330.233 199.43 331.613 198.11C333.013 196.77 334.883 196.1 337.223 196.1C338.923 196.1 340.353 196.45 341.513 197.15C342.693 197.83 343.573 198.77 344.153 199.97C344.753 201.17 345.053 202.55 345.053 204.11V204.83C345.053 205.03 344.983 205.21 344.843 205.37C344.703 205.51 344.523 205.58 344.303 205.58H334.703V205.79C334.743 206.73 334.973 207.49 335.393 208.07C335.813 208.65 336.423 208.94 337.223 208.94C337.723 208.94 338.133 208.84 338.453 208.64C338.773 208.42 339.063 208.16 339.323 207.86C339.503 207.64 339.643 207.51 339.743 207.47C339.863 207.41 340.043 207.38 340.283 207.38H344.003C344.183 207.38 344.333 207.44 344.453 207.56C344.593 207.66 344.663 207.8 344.663 207.98C344.663 208.5 344.363 209.1 343.763 209.78C343.183 210.46 342.333 211.05 341.213 211.55C340.093 212.05 338.773 212.3 337.253 212.3ZM339.773 202.61V202.55C339.773 201.57 339.543 200.8 339.083 200.24C338.643 199.66 338.023 199.37 337.223 199.37C336.443 199.37 335.823 199.66 335.363 200.24C334.923 200.8 334.703 201.57 334.703 202.55V202.61H339.773Z" fill="#7FB666"/>
<path d="M348.616 212C348.396 212 348.216 211.93 348.076 211.79C347.936 211.65 347.866 211.47 347.866 211.25V197.15C347.866 196.93 347.936 196.75 348.076 196.61C348.216 196.47 348.396 196.4 348.616 196.4H352.066C352.286 196.4 352.466 196.47 352.606 196.61C352.766 196.75 352.846 196.93 352.846 197.15V198.29C353.386 197.63 354.076 197.1 354.916 196.7C355.776 196.3 356.746 196.1 357.826 196.1C359.586 196.1 361.016 196.7 362.116 197.9C363.216 199.08 363.766 200.74 363.766 202.88V211.25C363.766 211.45 363.696 211.63 363.556 211.79C363.416 211.93 363.236 212 363.016 212H359.236C359.036 212 358.856 211.93 358.696 211.79C358.556 211.63 358.486 211.45 358.486 211.25V203.06C358.486 202.12 358.256 201.4 357.796 200.9C357.336 200.38 356.676 200.12 355.816 200.12C354.976 200.12 354.316 200.38 353.836 200.9C353.356 201.4 353.116 202.12 353.116 203.06V211.25C353.116 211.45 353.046 211.63 352.906 211.79C352.766 211.93 352.586 212 352.366 212H348.616Z" fill="#7FB666"/>
<path d="M374.61 212C374.41 212 374.23 211.93 374.07 211.79C373.93 211.63 373.86 211.45 373.86 211.25V191.75C373.86 191.53 373.93 191.35 374.07 191.21C374.23 191.07 374.41 191 374.61 191H382.77C385.39 191 387.43 191.6 388.89 192.8C390.37 193.98 391.11 195.66 391.11 197.84C391.11 199.24 390.78 200.43 390.12 201.41C389.46 202.39 388.55 203.14 387.39 203.66L391.5 211.04C391.56 211.16 391.59 211.27 391.59 211.37C391.59 211.53 391.52 211.68 391.38 211.82C391.26 211.94 391.12 212 390.96 212H386.97C386.39 212 385.98 211.73 385.74 211.19L382.32 204.59H379.26V211.25C379.26 211.47 379.18 211.65 379.02 211.79C378.88 211.93 378.7 212 378.48 212H374.61ZM382.71 200.33C383.63 200.33 384.33 200.11 384.81 199.67C385.29 199.21 385.53 198.58 385.53 197.78C385.53 196.98 385.29 196.35 384.81 195.89C384.35 195.41 383.65 195.17 382.71 195.17H379.26V200.33H382.71Z" fill="#7FB666"/>
<path d="M401.267 212.3C398.867 212.3 396.977 211.65 395.597 210.35C394.217 209.05 393.497 207.16 393.437 204.68V203.63C393.517 201.27 394.247 199.43 395.627 198.11C397.027 196.77 398.897 196.1 401.237 196.1C402.937 196.1 404.367 196.45 405.527 197.15C406.707 197.83 407.587 198.77 408.167 199.97C408.767 201.17 409.067 202.55 409.067 204.11V204.83C409.067 205.03 408.997 205.21 408.857 205.37C408.717 205.51 408.537 205.58 408.317 205.58H398.717V205.79C398.757 206.73 398.987 207.49 399.407 208.07C399.827 208.65 400.437 208.94 401.237 208.94C401.737 208.94 402.147 208.84 402.467 208.64C402.787 208.42 403.077 208.16 403.337 207.86C403.517 207.64 403.657 207.51 403.757 207.47C403.877 207.41 404.057 207.38 404.297 207.38H408.017C408.197 207.38 408.347 207.44 408.467 207.56C408.607 207.66 408.677 207.8 408.677 207.98C408.677 208.5 408.377 209.1 407.777 209.78C407.197 210.46 406.347 211.05 405.227 211.55C404.107 212.05 402.787 212.3 401.267 212.3ZM403.787 202.61V202.55C403.787 201.57 403.557 200.8 403.097 200.24C402.657 199.66 402.037 199.37 401.237 199.37C400.457 199.37 399.837 199.66 399.377 200.24C398.937 200.8 398.717 201.57 398.717 202.55V202.61H403.787Z" fill="#7FB666"/>
<path d="M416.559 212.3C415.499 212.3 414.529 212.1 413.649 211.7C412.789 211.28 412.109 210.72 411.609 210.02C411.129 209.3 410.889 208.51 410.889 207.65C410.889 206.27 411.449 205.16 412.569 204.32C413.709 203.48 415.269 202.9 417.249 202.58L420.999 202.01V201.59C420.999 200.83 420.839 200.27 420.519 199.91C420.199 199.55 419.659 199.37 418.899 199.37C418.439 199.37 418.059 199.45 417.759 199.61C417.459 199.77 417.149 199.99 416.829 200.27C416.549 200.51 416.339 200.67 416.199 200.75C416.139 200.91 416.029 200.99 415.869 200.99H412.599C412.399 200.99 412.229 200.93 412.089 200.81C411.969 200.67 411.919 200.51 411.939 200.33C411.959 199.79 412.219 199.19 412.719 198.53C413.239 197.87 414.019 197.3 415.059 196.82C416.119 196.34 417.419 196.1 418.959 196.1C421.419 196.1 423.239 196.65 424.419 197.75C425.599 198.83 426.189 200.29 426.189 202.13V211.25C426.189 211.45 426.119 211.63 425.979 211.79C425.839 211.93 425.659 212 425.439 212H421.959C421.759 212 421.579 211.93 421.419 211.79C421.279 211.63 421.209 211.45 421.209 211.25V210.2C420.769 210.82 420.149 211.33 419.349 211.73C418.569 212.11 417.639 212.3 416.559 212.3ZM417.969 208.88C418.889 208.88 419.629 208.58 420.189 207.98C420.769 207.38 421.059 206.5 421.059 205.34V204.92L418.509 205.37C416.709 205.69 415.809 206.32 415.809 207.26C415.809 207.76 416.019 208.16 416.439 208.46C416.859 208.74 417.369 208.88 417.969 208.88Z" fill="#7FB666"/>
<path d="M436.745 212.3C434.485 212.3 432.655 211.7 431.255 210.5C429.855 209.28 429.105 207.59 429.005 205.43L428.975 204.23L429.005 203C429.085 200.84 429.825 199.15 431.225 197.93C432.645 196.71 434.485 196.1 436.745 196.1C438.445 196.1 439.875 196.41 441.035 197.03C442.215 197.63 443.085 198.36 443.645 199.22C444.225 200.06 444.535 200.83 444.575 201.53C444.595 201.73 444.525 201.91 444.365 202.07C444.225 202.21 444.045 202.28 443.825 202.28H440.015C439.795 202.28 439.625 202.23 439.505 202.13C439.385 202.03 439.275 201.88 439.175 201.68C438.935 201.06 438.625 200.62 438.245 200.36C437.885 200.1 437.415 199.97 436.835 199.97C435.195 199.97 434.345 201.03 434.285 203.15L434.255 204.29L434.285 205.28C434.325 206.36 434.555 207.16 434.975 207.68C435.415 208.18 436.035 208.43 436.835 208.43C437.455 208.43 437.945 208.3 438.305 208.04C438.665 207.78 438.955 207.34 439.175 206.72C439.275 206.52 439.385 206.37 439.505 206.27C439.625 206.17 439.795 206.12 440.015 206.12H443.825C444.025 206.12 444.195 206.19 444.335 206.33C444.495 206.45 444.575 206.61 444.575 206.81C444.575 207.45 444.295 208.2 443.735 209.06C443.195 209.92 442.335 210.68 441.155 211.34C439.975 211.98 438.505 212.3 436.745 212.3Z" fill="#7FB666"/>
<path d="M455.25 212C451.11 212 449.04 210.03 449.04 206.09V200.33H446.7C446.48 200.33 446.29 200.26 446.13 200.12C445.99 199.98 445.92 199.8 445.92 199.58V197.15C445.92 196.93 445.99 196.75 446.13 196.61C446.29 196.47 446.48 196.4 446.7 196.4H449.04V191.45C449.04 191.23 449.11 191.05 449.25 190.91C449.41 190.77 449.59 190.7 449.79 190.7H453.27C453.49 190.7 453.67 190.77 453.81 190.91C453.95 191.05 454.02 191.23 454.02 191.45V196.4H457.77C457.99 196.4 458.17 196.47 458.31 196.61C458.47 196.75 458.55 196.93 458.55 197.15V199.58C458.55 199.8 458.47 199.98 458.31 200.12C458.17 200.26 457.99 200.33 457.77 200.33H454.02V205.67C454.02 207.15 454.59 207.89 455.73 207.89H458.04C458.26 207.89 458.44 207.96 458.58 208.1C458.72 208.24 458.79 208.42 458.79 208.64V211.25C458.79 211.45 458.72 211.63 458.58 211.79C458.44 211.93 458.26 212 458.04 212H455.25Z" fill="#7FB666"/>
<path d="M471.116 212C470.776 212 470.506 211.91 470.306 211.73C470.106 211.53 469.986 211.29 469.946 211.01L466.676 191.84C466.656 191.78 466.646 191.71 466.646 191.63C466.646 191.47 466.706 191.33 466.826 191.21C466.966 191.07 467.116 191 467.276 191H470.996C471.556 191 471.866 191.22 471.926 191.66L473.876 203.36L476.036 196.46C476.256 195.92 476.586 195.65 477.026 195.65H479.186C479.686 195.65 480.016 195.92 480.176 196.46L482.336 203.36L484.286 191.66C484.346 191.22 484.656 191 485.216 191H488.936C489.116 191 489.266 191.07 489.386 191.21C489.526 191.33 489.596 191.47 489.596 191.63L489.566 191.84L486.296 211.01C486.256 211.29 486.126 211.53 485.906 211.73C485.706 211.91 485.446 212 485.126 212H482.276C481.956 212 481.706 211.92 481.526 211.76C481.346 211.6 481.216 211.42 481.136 211.22L478.106 202.64L475.076 211.22C474.896 211.74 474.526 212 473.966 212H471.116Z" fill="#7FB666"/>
<path d="M499.031 212.3C496.631 212.3 494.741 211.65 493.361 210.35C491.981 209.05 491.261 207.16 491.201 204.68V203.63C491.281 201.27 492.011 199.43 493.391 198.11C494.791 196.77 496.661 196.1 499.001 196.1C500.701 196.1 502.131 196.45 503.291 197.15C504.471 197.83 505.351 198.77 505.931 199.97C506.531 201.17 506.831 202.55 506.831 204.11V204.83C506.831 205.03 506.761 205.21 506.621 205.37C506.481 205.51 506.301 205.58 506.081 205.58H496.481V205.79C496.521 206.73 496.751 207.49 497.171 208.07C497.591 208.65 498.201 208.94 499.001 208.94C499.501 208.94 499.911 208.84 500.231 208.64C500.551 208.42 500.841 208.16 501.101 207.86C501.281 207.64 501.421 207.51 501.521 207.47C501.641 207.41 501.821 207.38 502.061 207.38H505.781C505.961 207.38 506.111 207.44 506.231 207.56C506.371 207.66 506.441 207.8 506.441 207.98C506.441 208.5 506.141 209.1 505.541 209.78C504.961 210.46 504.111 211.05 502.991 211.55C501.871 212.05 500.551 212.3 499.031 212.3ZM501.551 202.61V202.55C501.551 201.57 501.321 200.8 500.861 200.24C500.421 199.66 499.801 199.37 499.001 199.37C498.221 199.37 497.601 199.66 497.141 200.24C496.701 200.8 496.481 201.57 496.481 202.55V202.61H501.551Z" fill="#7FB666"/>
<path d="M514.323 212.3C513.263 212.3 512.293 212.1 511.413 211.7C510.553 211.28 509.873 210.72 509.373 210.02C508.893 209.3 508.653 208.51 508.653 207.65C508.653 206.27 509.213 205.16 510.333 204.32C511.473 203.48 513.033 202.9 515.013 202.58L518.763 202.01V201.59C518.763 200.83 518.603 200.27 518.283 199.91C517.963 199.55 517.423 199.37 516.663 199.37C516.203 199.37 515.823 199.45 515.523 199.61C515.223 199.77 514.913 199.99 514.593 200.27C514.313 200.51 514.103 200.67 513.963 200.75C513.903 200.91 513.793 200.99 513.633 200.99H510.363C510.163 200.99 509.993 200.93 509.853 200.81C509.733 200.67 509.683 200.51 509.703 200.33C509.723 199.79 509.983 199.19 510.483 198.53C511.003 197.87 511.783 197.3 512.823 196.82C513.883 196.34 515.183 196.1 516.723 196.1C519.183 196.1 521.003 196.65 522.183 197.75C523.363 198.83 523.953 200.29 523.953 202.13V211.25C523.953 211.45 523.883 211.63 523.743 211.79C523.603 211.93 523.423 212 523.203 212H519.723C519.523 212 519.343 211.93 519.183 211.79C519.043 211.63 518.973 211.45 518.973 211.25V210.2C518.533 210.82 517.913 211.33 517.113 211.73C516.333 212.11 515.403 212.3 514.323 212.3ZM515.733 208.88C516.653 208.88 517.393 208.58 517.953 207.98C518.533 207.38 518.823 206.5 518.823 205.34V204.92L516.273 205.37C514.473 205.69 513.573 206.32 513.573 207.26C513.573 207.76 513.783 208.16 514.203 208.46C514.623 208.74 515.133 208.88 515.733 208.88Z" fill="#7FB666"/>
<path d="M535.201 212C531.061 212 528.991 210.03 528.991 206.09V200.33H526.651C526.431 200.33 526.241 200.26 526.081 200.12C525.941 199.98 525.871 199.8 525.871 199.58V197.15C525.871 196.93 525.941 196.75 526.081 196.61C526.241 196.47 526.431 196.4 526.651 196.4H528.991V191.45C528.991 191.23 529.061 191.05 529.201 190.91C529.361 190.77 529.541 190.7 529.741 190.7H533.221C533.441 190.7 533.621 190.77 533.761 190.91C533.901 191.05 533.971 191.23 533.971 191.45V196.4H537.721C537.941 196.4 538.121 196.47 538.261 196.61C538.421 196.75 538.501 196.93 538.501 197.15V199.58C538.501 199.8 538.421 199.98 538.261 200.12C538.121 200.26 537.941 200.33 537.721 200.33H533.971V205.67C533.971 207.15 534.541 207.89 535.681 207.89H537.991C538.211 207.89 538.391 207.96 538.531 208.1C538.671 208.24 538.741 208.42 538.741 208.64V211.25C538.741 211.45 538.671 211.63 538.531 211.79C538.391 211.93 538.211 212 537.991 212H535.201Z" fill="#7FB666"/>
<path d="M541.975 212C541.775 212 541.595 211.93 541.435 211.79C541.295 211.63 541.225 211.45 541.225 211.25V191.45C541.225 191.23 541.295 191.05 541.435 190.91C541.595 190.77 541.775 190.7 541.975 190.7H545.815C546.035 190.7 546.215 190.77 546.355 190.91C546.495 191.05 546.565 191.23 546.565 191.45V198.14C547.765 196.78 549.345 196.1 551.305 196.1C552.465 196.1 553.495 196.36 554.395 196.88C555.315 197.4 556.035 198.17 556.555 199.19C557.075 200.21 557.335 201.44 557.335 202.88V211.25C557.335 211.45 557.265 211.63 557.125 211.79C556.985 211.93 556.805 212 556.585 212H552.715C552.515 212 552.335 211.93 552.175 211.79C552.035 211.63 551.965 211.45 551.965 211.25V203.06C551.965 202.12 551.735 201.4 551.275 200.9C550.835 200.38 550.185 200.12 549.325 200.12C548.465 200.12 547.785 200.38 547.285 200.9C546.805 201.4 546.565 202.12 546.565 203.06V211.25C546.565 211.47 546.495 211.65 546.355 211.79C546.215 211.93 546.035 212 545.815 212H541.975Z" fill="#7FB666"/>
<path d="M567.937 212.3C565.537 212.3 563.647 211.65 562.267 210.35C560.887 209.05 560.167 207.16 560.107 204.68V203.63C560.187 201.27 560.917 199.43 562.297 198.11C563.697 196.77 565.567 196.1 567.907 196.1C569.607 196.1 571.037 196.45 572.197 197.15C573.377 197.83 574.257 198.77 574.837 199.97C575.437 201.17 575.737 202.55 575.737 204.11V204.83C575.737 205.03 575.667 205.21 575.527 205.37C575.387 205.51 575.207 205.58 574.987 205.58H565.387V205.79C565.427 206.73 565.657 207.49 566.077 208.07C566.497 208.65 567.107 208.94 567.907 208.94C568.407 208.94 568.817 208.84 569.137 208.64C569.457 208.42 569.747 208.16 570.007 207.86C570.187 207.64 570.327 207.51 570.427 207.47C570.547 207.41 570.727 207.38 570.967 207.38H574.687C574.867 207.38 575.017 207.44 575.137 207.56C575.277 207.66 575.347 207.8 575.347 207.98C575.347 208.5 575.047 209.1 574.447 209.78C573.867 210.46 573.017 211.05 571.897 211.55C570.777 212.05 569.457 212.3 567.937 212.3ZM570.457 202.61V202.55C570.457 201.57 570.227 200.8 569.767 200.24C569.327 199.66 568.707 199.37 567.907 199.37C567.127 199.37 566.507 199.66 566.047 200.24C565.607 200.8 565.387 201.57 565.387 202.55V202.61H570.457Z" fill="#7FB666"/>
<path d="M579.299 212C579.079 212 578.899 211.93 578.759 211.79C578.619 211.65 578.549 211.47 578.549 211.25V197.15C578.549 196.93 578.619 196.75 578.759 196.61C578.899 196.47 579.079 196.4 579.299 196.4H582.749C582.969 196.4 583.149 196.48 583.289 196.64C583.449 196.78 583.529 196.95 583.529 197.15V198.35C584.629 197.05 586.109 196.4 587.969 196.4H589.289C589.509 196.4 589.689 196.47 589.829 196.61C589.969 196.75 590.039 196.93 590.039 197.15V200.24C590.039 200.44 589.969 200.62 589.829 200.78C589.689 200.92 589.509 200.99 589.289 200.99H586.379C585.559 200.99 584.919 201.22 584.459 201.68C584.019 202.12 583.799 202.75 583.799 203.57V211.25C583.799 211.47 583.719 211.65 583.559 211.79C583.419 211.93 583.239 212 583.019 212H579.299Z" fill="#7FB666"/>
<path d="M596.341 212C596.181 212 596.031 211.94 595.891 211.82C595.771 211.68 595.711 211.53 595.711 211.37C595.711 211.25 595.721 211.16 595.741 211.1L602.791 191.84C602.851 191.6 602.981 191.4 603.181 191.24C603.381 191.08 603.641 191 603.961 191H608.401C608.721 191 608.981 191.08 609.181 191.24C609.381 191.4 609.511 191.6 609.571 191.84L616.591 211.1L616.651 211.37C616.651 211.53 616.581 211.68 616.441 211.82C616.321 211.94 616.171 212 615.991 212H612.301C611.821 212 611.501 211.79 611.341 211.37L610.171 208.31H602.161L601.021 211.37C600.861 211.79 600.531 212 600.031 212H596.341ZM608.971 203.99L606.181 196.07L603.391 203.99H608.971Z" fill="#7FB666"/>
<path d="M619.436 217.7C619.236 217.7 619.056 217.63 618.896 217.49C618.756 217.35 618.686 217.17 618.686 216.95V197.15C618.686 196.93 618.756 196.75 618.896 196.61C619.056 196.47 619.236 196.4 619.436 196.4H622.826C623.046 196.4 623.226 196.47 623.366 196.61C623.506 196.75 623.576 196.93 623.576 197.15V198.23C624.656 196.81 626.206 196.1 628.226 196.1C630.186 196.1 631.716 196.71 632.816 197.93C633.916 199.15 634.516 200.87 634.616 203.09C634.636 203.35 634.646 203.72 634.646 204.2C634.646 204.68 634.636 205.05 634.616 205.31C634.536 207.47 633.936 209.18 632.816 210.44C631.696 211.68 630.166 212.3 628.226 212.3C626.266 212.3 624.806 211.63 623.846 210.29V216.95C623.846 217.17 623.776 217.35 623.636 217.49C623.496 217.63 623.316 217.7 623.096 217.7H619.436ZM626.606 208.28C627.546 208.28 628.216 208 628.616 207.44C629.036 206.88 629.276 206.11 629.336 205.13C629.376 204.73 629.396 204.42 629.396 204.2C629.396 203.98 629.376 203.67 629.336 203.27C629.276 202.29 629.036 201.52 628.616 200.96C628.216 200.4 627.546 200.12 626.606 200.12C625.686 200.12 625.006 200.41 624.566 200.99C624.146 201.55 623.906 202.28 623.846 203.18L623.816 204.29L623.846 205.43C623.886 206.25 624.136 206.93 624.596 207.47C625.056 208.01 625.726 208.28 626.606 208.28Z" fill="#7FB666"/>
<path d="M638.362 217.7C638.162 217.7 637.982 217.63 637.822 217.49C637.682 217.35 637.612 217.17 637.612 216.95V197.15C637.612 196.93 637.682 196.75 637.822 196.61C637.982 196.47 638.162 196.4 638.362 196.4H641.752C641.972 196.4 642.152 196.47 642.292 196.61C642.432 196.75 642.502 196.93 642.502 197.15V198.23C643.582 196.81 645.132 196.1 647.152 196.1C649.112 196.1 650.642 196.71 651.742 197.93C652.842 199.15 653.442 200.87 653.542 203.09C653.562 203.35 653.572 203.72 653.572 204.2C653.572 204.68 653.562 205.05 653.542 205.31C653.462 207.47 652.862 209.18 651.742 210.44C650.622 211.68 649.092 212.3 647.152 212.3C645.192 212.3 643.732 211.63 642.772 210.29V216.95C642.772 217.17 642.702 217.35 642.562 217.49C642.422 217.63 642.242 217.7 642.022 217.7H638.362ZM645.532 208.28C646.472 208.28 647.142 208 647.542 207.44C647.962 206.88 648.202 206.11 648.262 205.13C648.302 204.73 648.322 204.42 648.322 204.2C648.322 203.98 648.302 203.67 648.262 203.27C648.202 202.29 647.962 201.52 647.542 200.96C647.142 200.4 646.472 200.12 645.532 200.12C644.612 200.12 643.932 200.41 643.492 200.99C643.072 201.55 642.832 202.28 642.772 203.18L642.742 204.29L642.772 205.43C642.812 206.25 643.062 206.93 643.522 207.47C643.982 208.01 644.652 208.28 645.532 208.28Z" fill="#7FB666"/>
<path fill-rule="evenodd" clip-rule="evenodd" d="M218 28.5V243.5C220 241.833 224.8 237.8 228 235C228 235 228.541 180.743 228.589 124.5C228.598 114.634 228.591 104.706 228.564 95C228.502 73.1368 228.335 52.3952 228 36C226.5 34.5 222.4 30.9 218 28.5Z" fill="#9CDE80"/>
<path d="M287.5 69C257.9 63 235.876 83.8333 228.564 95C228.591 104.706 228.598 114.634 228.589 124.5C276.26 118.9 287.726 85.1667 287.5 69Z" fill="#9CDE80"/>
<path fill-rule="evenodd" clip-rule="evenodd" d="M100.169 86.5C98.6057 80.153 97.7658 74.1835 97.5 69C180.3 61.4 205 125.5 207 158.5C202.279 129 174.304 73.3 100.169 86.5Z" fill="#9CDE80"/>
<path fill-rule="evenodd" clip-rule="evenodd" d="M100.169 86.5C105.067 119 136.734 163.879 207 158.5C131 163.7 104.113 112.667 100.169 86.5Z" fill="#9CDE80"/>
<path d="M229.5 120.5C257 102 254.7 77.6 281.5 82C280 91 261 118 229.5 120.5Z" fill="#7FB666"/>
<path d="M206.831 157.99C202.11 128.49 174.135 72.7898 100 85.9898C101.22 94.0814 104.633 104.551 111.014 115C125.269 138.342 154.333 161.582 206.831 157.99Z" fill="#7FB666"/>
</svg>
